<?xml version="1.0" encoding="UTF-8" standalone="no"?><svg xmlns="http://www.w3.org/2000/svg" xmlns:xlink="http://www.w3.org/1999/xlink" contentStyleType="text/css" height="1118px" preserveAspectRatio="none" style="width:613px;height:1118px;background:#FFFFFF;" version="1.1" viewBox="0 0 613 1118" width="613px" zoomAndPan="magnify"><defs/><g><rect fill="#FFFFFF" height="895.4531" style="stroke:#181818;stroke-width:1.0;" width="10" x="144" y="207.375"/><rect fill="#FFFFFF" height="895.4531" style="stroke:#181818;stroke-width:1.0;" width="10" x="347" y="207.375"/><line style="stroke:#181818;stroke-width:0.5;stroke-dasharray:5.0,5.0;" x1="149" x2="149" y1="197.375" y2="1111.8281"/><line style="stroke:#181818;stroke-width:0.5;stroke-dasharray:5.0,5.0;" x1="351.5" x2="351.5" y1="197.375" y2="1111.8281"/><line style="stroke:#181818;stroke-width:0.5;stroke-dasharray:5.0,5.0;" x1="547.5" x2="547.5" y1="197.375" y2="1111.8281"/><rect fill="#E2E2F0" height="30.2969" rx="2.5" ry="2.5" style="stroke:#181818;stroke-width:0.5;" width="70" x="114" y="166.0781"/><text fill="#000000" font-family="sans-serif" font-size="14" lengthAdjust="spacing" textLength="56" x="121" y="186.0732">Platform</text><rect fill="#E2E2F0" height="30.2969" rx="2.5" ry="2.5" style="stroke:#181818;stroke-width:0.5;" width="111" x="296.5" y="166.0781"/><text fill="#000000" font-family="sans-serif" font-size="14" lengthAdjust="spacing" textLength="97" x="303.5" y="186.0732">Fobnail Token</text><rect fill="#E2E2F0" height="30.2969" rx="2.5" ry="2.5" style="stroke:#181818;stroke-width:0.5;" width="119" x="488.5" y="166.0781"/><text fill="#000000" font-family="sans-serif" font-size="14" lengthAdjust="spacing" textLength="105" x="495.5" y="186.0732">Platform Owner</text><rect fill="#FFFFFF" height="895.4531" style="stroke:#181818;stroke-width:1.0;" width="10" x="144" y="207.375"/><rect fill="#FFFFFF" height="895.4531" style="stroke:#181818;stroke-width:1.0;" width="10" x="347" y="207.375"/><polygon fill="#181818" points="335,242.6406,345,246.6406,335,250.6406" style="stroke:#181818;stroke-width:1.0;"/><line style="stroke:#181818;stroke-width:1.0;" x1="154" x2="341" y1="246.6406" y2="246.6406"/><text fill="#000000" font-family="sans-serif" font-size="13" lengthAdjust="spacing" textLength="158" x="161" y="223.4419">Send EK certificate chain</text><text fill="#000000" font-family="sans-serif" font-size="13" lengthAdjust="spacing" textLength="16" x="161" y="238.5747">EK</text><text fill="#000000" font-family="sans-serif" font-size="10" lengthAdjust="spacing" textLength="25" x="177" y="242.2822">chain</text><line style="stroke:#181818;stroke-width:1.0;" x1="357" x2="399" y1="278.7734" y2="278.7734"/><line style="stroke:#181818;stroke-width:1.0;" x1="399" x2="399" y1="278.7734" y2="291.7734"/><line style="stroke:#181818;stroke-width:1.0;" x1="358" x2="399" y1="291.7734" y2="291.7734"/><polygon fill="#181818" points="368,287.7734,358,291.7734,368,295.7734" style="stroke:#181818;stroke-width:1.0;"/><text fill="#000000" font-family="sans-serif" font-size="13" lengthAdjust="spacing" textLength="56" x="364" y="270.7075">Verify EK</text><text fill="#000000" font-family="sans-serif" font-size="10" lengthAdjust="spacing" textLength="25" x="420" y="274.415">chain</text><polygon fill="#181818" points="165,319.9063,155,323.9063,165,327.9063" style="stroke:#181818;stroke-width:1.0;"/><line style="stroke:#181818;stroke-width:1.0;stroke-dasharray:2.0,2.0;" x1="159" x2="346" y1="323.9063" y2="323.9063"/><text fill="#000000" font-family="sans-serif" font-size="13" lengthAdjust="spacing" textLength="16" x="171" y="315.8403">EK</text><text fill="#000000" font-family="sans-serif" font-size="10" lengthAdjust="spacing" textLength="11" x="187" y="319.5479">ID</text><line style="stroke:#181818;stroke-width:1.0;" x1="112" x2="154" y1="356.0391" y2="356.0391"/><line style="stroke:#181818;stroke-width:1.0;" x1="112" x2="112" y1="356.0391" y2="369.0391"/><line style="stroke:#181818;stroke-width:1.0;" x1="112" x2="153" y1="369.0391" y2="369.0391"/><polygon fill="#181818" points="145,365.0391,155,369.0391,145,373.0391" style="stroke:#181818;stroke-width:1.0;"/><text fill="#000000" font-family="sans-serif" font-size="13" lengthAdjust="spacing" textLength="84" x="29" y="347.9731">Generate AIK</text><text fill="#000000" font-family="sans-serif" font-size="10" lengthAdjust="spacing" textLength="41" x="113" y="351.6807">Priv,Pub</text><polygon fill="#181818" points="335,397.1719,345,401.1719,335,405.1719" style="stroke:#181818;stroke-width:1.0;"/><line style="stroke:#181818;stroke-width:1.0;" x1="154" x2="341" y1="401.1719" y2="401.1719"/><text fill="#000000" font-family="sans-serif" font-size="13" lengthAdjust="spacing" textLength="16" x="161" y="393.106">EK</text><text fill="#000000" font-family="sans-serif" font-size="10" lengthAdjust="spacing" textLength="11" x="177" y="396.8135">ID</text><text fill="#000000" font-family="sans-serif" font-size="13" lengthAdjust="spacing" textLength="28" x="188" y="393.106">, AIK</text><text fill="#000000" font-family="sans-serif" font-size="10" lengthAdjust="spacing" textLength="19" x="216" y="396.8135">Pub</text><line style="stroke:#181818;stroke-width:1.0;" x1="357" x2="399" y1="430.3047" y2="430.3047"/><line style="stroke:#181818;stroke-width:1.0;" x1="399" x2="399" y1="430.3047" y2="443.3047"/><line style="stroke:#181818;stroke-width:1.0;" x1="358" x2="399" y1="443.3047" y2="443.3047"/><polygon fill="#181818" points="368,439.3047,358,443.3047,368,447.3047" style="stroke:#181818;stroke-width:1.0;"/><text fill="#000000" font-family="sans-serif" font-size="13" lengthAdjust="spacing" textLength="103" x="364" y="425.2388">Make Credential</text><polygon fill="#181818" points="165,486.5703,155,490.5703,165,494.5703" style="stroke:#181818;stroke-width:1.0;"/><line style="stroke:#181818;stroke-width:1.0;stroke-dasharray:2.0,2.0;" x1="159" x2="346" y1="490.5703" y2="490.5703"/><text fill="#000000" font-family="sans-serif" font-size="13" lengthAdjust="spacing" textLength="20" x="171" y="467.3716">AIK</text><text fill="#000000" font-family="sans-serif" font-size="10" lengthAdjust="spacing" textLength="11" x="191" y="471.0791">ID</text><text fill="#000000" font-family="sans-serif" font-size="13" lengthAdjust="spacing" textLength="4" x="202" y="467.3716">,</text><text fill="#000000" font-family="sans-serif" font-size="13" lengthAdjust="spacing" textLength="169" x="171" y="485.5044">Challenge (EK, AIK, secret)</text><line style="stroke:#181818;stroke-width:1.0;" x1="112" x2="154" y1="519.7031" y2="519.7031"/><line style="stroke:#181818;stroke-width:1.0;" x1="112" x2="112" y1="519.7031" y2="532.7031"/><line style="stroke:#181818;stroke-width:1.0;" x1="112" x2="153" y1="532.7031" y2="532.7031"/><polygon fill="#181818" points="145,528.7031,155,532.7031,145,536.7031" style="stroke:#181818;stroke-width:1.0;"/><text fill="#000000" font-family="sans-serif" font-size="13" lengthAdjust="spacing" textLength="121" x="33" y="514.6372">Activate Credential</text><polygon fill="#181818" points="335,560.8359,345,564.8359,335,568.8359" style="stroke:#181818;stroke-width:1.0;"/><line style="stroke:#181818;stroke-width:1.0;" x1="154" x2="341" y1="564.8359" y2="564.8359"/><text fill="#000000" font-family="sans-serif" font-size="13" lengthAdjust="spacing" textLength="16" x="161" y="556.77">EK</text><text fill="#000000" font-family="sans-serif" font-size="10" lengthAdjust="spacing" textLength="11" x="177" y="560.4775">ID</text><text fill="#000000" font-family="sans-serif" font-size="13" lengthAdjust="spacing" textLength="28" x="188" y="556.77">, AIK</text><text fill="#000000" font-family="sans-serif" font-size="10" lengthAdjust="spacing" textLength="11" x="216" y="560.4775">ID</text><text fill="#000000" font-family="sans-serif" font-size="13" lengthAdjust="spacing" textLength="48" x="227" y="556.77">, secret</text><line style="stroke:#181818;stroke-width:1.0;" x1="357" x2="399" y1="593.9688" y2="593.9688"/><line style="stroke:#181818;stroke-width:1.0;" x1="399" x2="399" y1="593.9688" y2="606.9688"/><line style="stroke:#181818;stroke-width:1.0;" x1="358" x2="399" y1="606.9688" y2="606.9688"/><polygon fill="#181818" points="368,602.9688,358,606.9688,368,610.9688" style="stroke:#181818;stroke-width:1.0;"/><text fill="#000000" font-family="sans-serif" font-size="13" lengthAdjust="spacing" textLength="124" x="364" y="588.9028">Mark AIK as trusted</text><polygon fill="#181818" points="165,635.1016,155,639.1016,165,643.1016" style="stroke:#181818;stroke-width:1.0;"/><line style="stroke:#181818;stroke-width:1.0;stroke-dasharray:2.0,2.0;" x1="159" x2="346" y1="639.1016" y2="639.1016"/><text fill="#000000" font-family="sans-serif" font-size="13" lengthAdjust="spacing" textLength="17" x="171" y="631.0356">PC</text><text fill="#000000" font-family="sans-serif" font-size="10" lengthAdjust="spacing" textLength="11" x="188" y="634.7432">ID</text><line style="stroke:#181818;stroke-width:1.0;" x1="112" x2="154" y1="671.2344" y2="671.2344"/><line style="stroke:#181818;stroke-width:1.0;" x1="112" x2="112" y1="671.2344" y2="684.2344"/><line style="stroke:#181818;stroke-width:1.0;" x1="112" x2="153" y1="684.2344" y2="684.2344"/><polygon fill="#181818" points="145,680.2344,155,684.2344,145,688.2344" style="stroke:#181818;stroke-width:1.0;"/><text fill="#000000" font-family="sans-serif" font-size="13" lengthAdjust="spacing" textLength="55" x="73" y="663.1685">Obtain A</text><text fill="#000000" font-family="sans-serif" font-size="10" lengthAdjust="spacing" textLength="26" x="128" y="666.876">meta</text><polygon fill="#181818" points="335,712.3672,345,716.3672,335,720.3672" style="stroke:#181818;stroke-width:1.0;"/><line style="stroke:#181818;stroke-width:1.0;" x1="154" x2="341" y1="716.3672" y2="716.3672"/><text fill="#000000" font-family="sans-serif" font-size="13" lengthAdjust="spacing" textLength="20" x="161" y="708.3013">AIK</text><text fill="#000000" font-family="sans-serif" font-size="10" lengthAdjust="spacing" textLength="18" x="181" y="712.0088">priv</text><text fill="#000000" font-family="sans-serif" font-size="13" lengthAdjust="spacing" textLength="14" x="199" y="708.3013">(A</text><text fill="#000000" font-family="sans-serif" font-size="10" lengthAdjust="spacing" textLength="26" x="213" y="712.0088">meta</text><text fill="#000000" font-family="sans-serif" font-size="13" lengthAdjust="spacing" textLength="30" x="239" y="708.3013">), PC</text><text fill="#000000" font-family="sans-serif" font-size="10" lengthAdjust="spacing" textLength="11" x="269" y="712.0088">ID</text><line style="stroke:#181818;stroke-width:1.0;" x1="357" x2="399" y1="748.5" y2="748.5"/><line style="stroke:#181818;stroke-width:1.0;" x1="399" x2="399" y1="748.5" y2="761.5"/><line style="stroke:#181818;stroke-width:1.0;" x1="358" x2="399" y1="761.5" y2="761.5"/><polygon fill="#181818" points="368,757.5,358,761.5,368,765.5" style="stroke:#181818;stroke-width:1.0;"/><text fill="#000000" font-family="sans-serif" font-size="13" lengthAdjust="spacing" textLength="49" x="364" y="740.4341">Verify A</text><text fill="#000000" font-family="sans-serif" font-size="10" lengthAdjust="spacing" textLength="26" x="413" y="744.1416">meta</text><polygon fill="#181818" points="165,786.6328,155,790.6328,165,794.6328" style="stroke:#181818;stroke-width:1.0;"/><line style="stroke:#181818;stroke-width:1.0;stroke-dasharray:2.0,2.0;" x1="159" x2="346" y1="790.6328" y2="790.6328"/><text fill="#000000" font-family="sans-serif" font-size="13" lengthAdjust="spacing" textLength="42" x="171" y="785.5669">Status</text><line style="stroke:#181818;stroke-width:1.0;" x1="112" x2="154" y1="819.7656" y2="819.7656"/><line style="stroke:#181818;stroke-width:1.0;" x1="112" x2="112" y1="819.7656" y2="832.7656"/><line style="stroke:#181818;stroke-width:1.0;" x1="112" x2="153" y1="832.7656" y2="832.7656"/><polygon fill="#181818" points="145,828.7656,155,832.7656,145,836.7656" style="stroke:#181818;stroke-width:1.0;"/><text fill="#000000" font-family="sans-serif" font-size="13" lengthAdjust="spacing" textLength="68" x="86" y="814.6997">Obtain RIM</text><polygon fill="#181818" points="335,860.8984,345,864.8984,335,868.8984" style="stroke:#181818;stroke-width:1.0;"/><line style="stroke:#181818;stroke-width:1.0;" x1="154" x2="341" y1="864.8984" y2="864.8984"/><text fill="#000000" font-family="sans-serif" font-size="13" lengthAdjust="spacing" textLength="20" x="161" y="856.8325">AIK</text><text fill="#000000" font-family="sans-serif" font-size="10" lengthAdjust="spacing" textLength="18" x="181" y="860.54">priv</text><text fill="#000000" font-family="sans-serif" font-size="13" lengthAdjust="spacing" textLength="57" x="199" y="856.8325">(RIM), PC</text><text fill="#000000" font-family="sans-serif" font-size="10" lengthAdjust="spacing" textLength="11" x="256" y="860.54">ID</text><line style="stroke:#181818;stroke-width:1.0;" x1="357" x2="399" y1="894.0313" y2="894.0313"/><line style="stroke:#181818;stroke-width:1.0;" x1="399" x2="399" y1="894.0313" y2="907.0313"/><line style="stroke:#181818;stroke-width:1.0;" x1="358" x2="399" y1="907.0313" y2="907.0313"/><polygon fill="#181818" points="368,903.0313,358,907.0313,368,911.0313" style="stroke:#181818;stroke-width:1.0;"/><text fill="#000000" font-family="sans-serif" font-size="13" lengthAdjust="spacing" textLength="62" x="364" y="888.9653">Verify RIM</text><polygon fill="#181818" points="165,932.1641,155,936.1641,165,940.1641" style="stroke:#181818;stroke-width:1.0;"/><line style="stroke:#181818;stroke-width:1.0;stroke-dasharray:2.0,2.0;" x1="159" x2="346" y1="936.1641" y2="936.1641"/><text fill="#000000" font-family="sans-serif" font-size="13" lengthAdjust="spacing" textLength="42" x="171" y="931.0981">Status</text><polygon fill="#181818" points="335,961.2969,345,965.2969,335,969.2969" style="stroke:#181818;stroke-width:1.0;"/><line style="stroke:#181818;stroke-width:1.0;" x1="154" x2="341" y1="965.2969" y2="965.2969"/><text fill="#000000" font-family="sans-serif" font-size="13" lengthAdjust="spacing" textLength="116" x="161" y="960.231">Finish provisioning</text><line style="stroke:#181818;stroke-width:1.0;" x1="357" x2="399" y1="1009.5625" y2="1009.5625"/><line style="stroke:#181818;stroke-width:1.0;" x1="399" x2="399" y1="1009.5625" y2="1022.5625"/><line style="stroke:#181818;stroke-width:1.0;" x1="358" x2="399" y1="1022.5625" y2="1022.5625"/><polygon fill="#181818" points="368,1018.5625,358,1022.5625,368,1026.5625" style="stroke:#181818;stroke-width:1.0;"/><text fill="#000000" font-family="sans-serif" font-size="13" lengthAdjust="spacing" textLength="148" x="364" y="989.3638">Verify all data attached</text><text fill="#000000" font-family="sans-serif" font-size="13" lengthAdjust="spacing" textLength="172" x="364" y="1004.4966">to the Provisioning Context</text><line style="stroke:#181818;stroke-width:1.0;" x1="357" x2="399" y1="1051.6953" y2="1051.6953"/><line style="stroke:#181818;stroke-width:1.0;" x1="399" x2="399" y1="1051.6953" y2="1064.6953"/><line style="stroke:#181818;stroke-width:1.0;" x1="358" x2="399" y1="1064.6953" y2="1064.6953"/><polygon fill="#181818" points="368,1060.6953,358,1064.6953,368,1068.6953" style="stroke:#181818;stroke-width:1.0;"/><text fill="#000000" font-family="sans-serif" font-size="13" lengthAdjust="spacing" textLength="119" x="364" y="1046.6294">Save data to Flash</text><polygon fill="#181818" points="165,1089.8281,155,1093.8281,165,1097.8281" style="stroke:#181818;stroke-width:1.0;"/><line style="stroke:#181818;stroke-width:1.0;stroke-dasharray:2.0,2.0;" x1="159" x2="346" y1="1093.8281" y2="1093.8281"/><text fill="#000000" font-family="sans-serif" font-size="13" lengthAdjust="spacing" textLength="42" x="171" y="1088.7622">Status</text><rect fill="#FFFFFF" height="144.0781" id="_legend" rx="7.5" ry="7.5" style="stroke:#FFFFFF;stroke-width:0.0;" width="431" x="8" y="13"/><text fill="#000000" font-family="sans-serif" font-size="14" lengthAdjust="spacing" textLength="9" x="14" y="31.9951">K</text><text fill="#000000" font-family="sans-serif" font-size="11" lengthAdjust="spacing" textLength="21" x="23" y="35.7026">priv</text><text fill="#000000" font-family="sans-serif" font-size="14" lengthAdjust="spacing" textLength="120" x="44" y="31.9951">(X) - Sign X with P</text><text fill="#000000" font-family="sans-serif" font-size="11" lengthAdjust="spacing" textLength="21" x="164" y="35.7026">priv</text><text fill="#000000" font-family="sans-serif" font-size="14" lengthAdjust="spacing" textLength="24" x="189" y="31.9951">key</text><text fill="#000000" font-family="sans-serif" font-size="14" lengthAdjust="spacing" textLength="18" x="14" y="51.292">EK</text><text fill="#000000" font-family="sans-serif" font-size="11" lengthAdjust="spacing" textLength="30" x="32" y="54.9995">chain</text><text fill="#000000" font-family="sans-serif" font-size="14" lengthAdjust="spacing" textLength="246" x="66" y="51.292">- Endorsement Key Certificate chain</text><text fill="#000000" font-family="sans-serif" font-size="14" lengthAdjust="spacing" textLength="21" x="14" y="70.5889">AIK</text><text fill="#000000" font-family="sans-serif" font-size="11" lengthAdjust="spacing" textLength="46" x="35" y="74.2964">priv,pub</text><text fill="#000000" font-family="sans-serif" font-size="14" lengthAdjust="spacing" textLength="166" x="85" y="70.5889">- Attestation Identity key</text><text fill="#000000" font-family="sans-serif" font-size="14" lengthAdjust="spacing" textLength="9" x="14" y="89.8857">A</text><text fill="#000000" font-family="sans-serif" font-size="11" lengthAdjust="spacing" textLength="29" x="23" y="93.5933">meta</text><text fill="#000000" font-family="sans-serif" font-size="14" lengthAdjust="spacing" textLength="377" x="56" y="89.8857">Platform metadata (product name, serial number, MAC)</text><text fill="#000000" font-family="sans-serif" font-size="14" lengthAdjust="spacing" textLength="21" x="14" y="109.1826">AIK</text><text fill="#000000" font-family="sans-serif" font-size="11" lengthAdjust="spacing" textLength="11" x="35" y="112.8901">ID</text><text fill="#000000" font-family="sans-serif" font-size="14" lengthAdjust="spacing" textLength="95" x="50" y="109.1826">- AIK object ID</text><text fill="#000000" font-family="sans-serif" font-size="14" lengthAdjust="spacing" textLength="19" x="14" y="128.4795">PC</text><text fill="#000000" font-family="sans-serif" font-size="11" lengthAdjust="spacing" textLength="11" x="33" y="132.187">ID</text><text fill="#000000" font-family="sans-serif" font-size="14" lengthAdjust="spacing" textLength="168" x="48" y="128.4795">- Provisioning Context ID</text><text fill="#000000" font-family="sans-serif" font-size="14" lengthAdjust="spacing" textLength="269" x="14" y="147.7764">RIM - Reference Integrity Measurement</text><!--MD5=[600378b9a116554c519213e880a07a11]
@startuml Fobnail Local Platform Provisioning

skinparam LegendBorderThickness 0
skinparam LegendBackgroundColor #white
skinparam style strictuml
participant "Platform"
participant "Fobnail Token" as FT
participant "Platform Owner" as PO


legend top left
    K<sub>priv</sub>(X) - Sign X with P<sub>priv</sub> key
    EK<sub>chain</sub> - Endorsement Key Certificate chain
    AIK<sub>priv,pub</sub> - Attestation Identity key
    A<sub>meta</sub> Platform metadata (product name, serial number, MAC)
    AIK<sub>ID</sub> - AIK object ID
    PC<sub>ID</sub> - Provisioning Context ID
    RIM - Reference Integrity Measurement
endlegend

activate Platform
activate FT

Platform -> FT: Send EK certificate chain\nEK<sub>chain</sub>
FT -> FT: Verify EK<sub>chain</sub>
FT - -> Platform: EK<sub>ID</sub>
Platform <- Platform: Generate AIK<sub>Priv,Pub</sub>
Platform -> FT: EK<sub>ID</sub>, AIK<sub>Pub</sub>
FT -> FT: Make Credential
FT - -> Platform: AIK<sub>ID</sub>,\nChallenge (EK, AIK, secret)
Platform <- Platform: Activate Credential
Platform -> FT: EK<sub>ID</sub>, AIK<sub>ID</sub>, secret
FT -> FT: Mark AIK as trusted
FT - -> Platform: PC<sub>ID</sub>
Platform <- Platform: Obtain A<sub>meta</sub>
Platform -> FT: AIK<sub>priv</sub>(A<sub>meta</sub>), PC<sub>ID</sub>
FT -> FT: Verify A<sub>meta</sub>
FT - -> Platform: Status
Platform <- Platform: Obtain RIM
Platform -> FT: AIK<sub>priv</sub>(RIM), PC<sub>ID</sub>
FT -> FT: Verify RIM
FT - -> Platform: Status
Platform -> FT: Finish provisioning
FT -> FT: Verify all data attached\nto the Provisioning Context
FT -> FT: Save data to Flash
FT - -> Platform: Status

@enduml

PlantUML version 1.2022.7beta3(Unknown compile time)
(GPL source distribution)
Java Runtime: OpenJDK Runtime Environment
JVM: OpenJDK 64-Bit Server VM
Default Encoding: UTF-8
Language: en
Country: US
--></g></svg>
