<?xml version="1.0" encoding="UTF-8" standalone="no"?><svg xmlns="http://www.w3.org/2000/svg" xmlns:xlink="http://www.w3.org/1999/xlink" contentStyleType="text/css" height="1441px" preserveAspectRatio="none" style="width:636px;height:1441px;background:#FFFFFF;" version="1.1" viewBox="0 0 636 1441" width="636px" zoomAndPan="magnify"><defs/><g><rect fill="#FFFFFF" height="757.9219" style="stroke:#181818;stroke-width:1.0;" width="10" x="144" y="207.375"/><rect fill="#FFFFFF" height="421.7266" style="stroke:#181818;stroke-width:1.0;" width="10" x="292" y="965.2969"/><rect fill="#FFFFFF" height="1217.7813" style="stroke:#181818;stroke-width:1.0;" width="10" x="488" y="207.375"/><line style="stroke:#181818;stroke-width:0.5;stroke-dasharray:5.0,5.0;" x1="149" x2="149" y1="197.375" y2="1434.1563"/><line style="stroke:#181818;stroke-width:0.5;stroke-dasharray:5.0,5.0;" x1="296.5" x2="296.5" y1="197.375" y2="1434.1563"/><line style="stroke:#181818;stroke-width:0.5;stroke-dasharray:5.0,5.0;" x1="492.5" x2="492.5" y1="197.375" y2="1434.1563"/><rect fill="#E2E2F0" height="30.2969" rx="2.5" ry="2.5" style="stroke:#181818;stroke-width:0.5;" width="70" x="114" y="166.0781"/><text fill="#000000" font-family="sans-serif" font-size="14" lengthAdjust="spacing" textLength="56" x="121" y="186.0732">Platform</text><rect fill="#E2E2F0" height="30.2969" rx="2.5" ry="2.5" style="stroke:#181818;stroke-width:0.5;" width="111" x="241.5" y="166.0781"/><text fill="#000000" font-family="sans-serif" font-size="14" lengthAdjust="spacing" textLength="97" x="248.5" y="186.0732">Fobnail Token</text><rect fill="#E2E2F0" height="30.2969" rx="2.5" ry="2.5" style="stroke:#181818;stroke-width:0.5;" width="119" x="433.5" y="166.0781"/><text fill="#000000" font-family="sans-serif" font-size="14" lengthAdjust="spacing" textLength="105" x="440.5" y="186.0732">Platform Owner</text><rect fill="#FFFFFF" height="757.9219" style="stroke:#181818;stroke-width:1.0;" width="10" x="144" y="207.375"/><rect fill="#FFFFFF" height="421.7266" style="stroke:#181818;stroke-width:1.0;" width="10" x="292" y="965.2969"/><rect fill="#FFFFFF" height="1217.7813" style="stroke:#181818;stroke-width:1.0;" width="10" x="488" y="207.375"/><polygon fill="#181818" points="476,242.6406,486,246.6406,476,250.6406" style="stroke:#181818;stroke-width:1.0;"/><line style="stroke:#181818;stroke-width:1.0;" x1="154" x2="482" y1="246.6406" y2="246.6406"/><text fill="#000000" font-family="sans-serif" font-size="13" lengthAdjust="spacing" textLength="158" x="161" y="223.4419">Send EK certificate chain</text><text fill="#000000" font-family="sans-serif" font-size="13" lengthAdjust="spacing" textLength="16" x="161" y="238.5747">EK</text><text fill="#000000" font-family="sans-serif" font-size="10" lengthAdjust="spacing" textLength="25" x="177" y="242.2822">chain</text><line style="stroke:#181818;stroke-width:1.0;" x1="498" x2="540" y1="278.7734" y2="278.7734"/><line style="stroke:#181818;stroke-width:1.0;" x1="540" x2="540" y1="278.7734" y2="291.7734"/><line style="stroke:#181818;stroke-width:1.0;" x1="499" x2="540" y1="291.7734" y2="291.7734"/><polygon fill="#181818" points="509,287.7734,499,291.7734,509,295.7734" style="stroke:#181818;stroke-width:1.0;"/><text fill="#000000" font-family="sans-serif" font-size="13" lengthAdjust="spacing" textLength="56" x="505" y="270.7075">Verify EK</text><text fill="#000000" font-family="sans-serif" font-size="10" lengthAdjust="spacing" textLength="25" x="561" y="274.415">chain</text><polygon fill="#181818" points="165,319.9063,155,323.9063,165,327.9063" style="stroke:#181818;stroke-width:1.0;"/><line style="stroke:#181818;stroke-width:1.0;stroke-dasharray:2.0,2.0;" x1="159" x2="487" y1="323.9063" y2="323.9063"/><text fill="#000000" font-family="sans-serif" font-size="13" lengthAdjust="spacing" textLength="16" x="171" y="315.8403">EK</text><text fill="#000000" font-family="sans-serif" font-size="10" lengthAdjust="spacing" textLength="11" x="187" y="319.5479">ID</text><line style="stroke:#181818;stroke-width:1.0;" x1="112" x2="154" y1="356.0391" y2="356.0391"/><line style="stroke:#181818;stroke-width:1.0;" x1="112" x2="112" y1="356.0391" y2="369.0391"/><line style="stroke:#181818;stroke-width:1.0;" x1="112" x2="153" y1="369.0391" y2="369.0391"/><polygon fill="#181818" points="145,365.0391,155,369.0391,145,373.0391" style="stroke:#181818;stroke-width:1.0;"/><text fill="#000000" font-family="sans-serif" font-size="13" lengthAdjust="spacing" textLength="84" x="29" y="347.9731">Generate AIK</text><text fill="#000000" font-family="sans-serif" font-size="10" lengthAdjust="spacing" textLength="41" x="113" y="351.6807">Priv,Pub</text><polygon fill="#181818" points="476,397.1719,486,401.1719,476,405.1719" style="stroke:#181818;stroke-width:1.0;"/><line style="stroke:#181818;stroke-width:1.0;" x1="154" x2="482" y1="401.1719" y2="401.1719"/><text fill="#000000" font-family="sans-serif" font-size="13" lengthAdjust="spacing" textLength="16" x="161" y="393.106">EK</text><text fill="#000000" font-family="sans-serif" font-size="10" lengthAdjust="spacing" textLength="11" x="177" y="396.8135">ID</text><text fill="#000000" font-family="sans-serif" font-size="13" lengthAdjust="spacing" textLength="28" x="188" y="393.106">, AIK</text><text fill="#000000" font-family="sans-serif" font-size="10" lengthAdjust="spacing" textLength="19" x="216" y="396.8135">Pub</text><line style="stroke:#181818;stroke-width:1.0;" x1="498" x2="540" y1="430.3047" y2="430.3047"/><line style="stroke:#181818;stroke-width:1.0;" x1="540" x2="540" y1="430.3047" y2="443.3047"/><line style="stroke:#181818;stroke-width:1.0;" x1="499" x2="540" y1="443.3047" y2="443.3047"/><polygon fill="#181818" points="509,439.3047,499,443.3047,509,447.3047" style="stroke:#181818;stroke-width:1.0;"/><text fill="#000000" font-family="sans-serif" font-size="13" lengthAdjust="spacing" textLength="103" x="505" y="425.2388">Make Credential</text><polygon fill="#181818" points="165,486.5703,155,490.5703,165,494.5703" style="stroke:#181818;stroke-width:1.0;"/><line style="stroke:#181818;stroke-width:1.0;stroke-dasharray:2.0,2.0;" x1="159" x2="487" y1="490.5703" y2="490.5703"/><text fill="#000000" font-family="sans-serif" font-size="13" lengthAdjust="spacing" textLength="20" x="171" y="467.3716">AIK</text><text fill="#000000" font-family="sans-serif" font-size="10" lengthAdjust="spacing" textLength="11" x="191" y="471.0791">ID</text><text fill="#000000" font-family="sans-serif" font-size="13" lengthAdjust="spacing" textLength="4" x="202" y="467.3716">,</text><text fill="#000000" font-family="sans-serif" font-size="13" lengthAdjust="spacing" textLength="169" x="171" y="485.5044">Challenge (EK, AIK, secret)</text><line style="stroke:#181818;stroke-width:1.0;" x1="112" x2="154" y1="519.7031" y2="519.7031"/><line style="stroke:#181818;stroke-width:1.0;" x1="112" x2="112" y1="519.7031" y2="532.7031"/><line style="stroke:#181818;stroke-width:1.0;" x1="112" x2="153" y1="532.7031" y2="532.7031"/><polygon fill="#181818" points="145,528.7031,155,532.7031,145,536.7031" style="stroke:#181818;stroke-width:1.0;"/><text fill="#000000" font-family="sans-serif" font-size="13" lengthAdjust="spacing" textLength="121" x="33" y="514.6372">Activate Credential</text><polygon fill="#181818" points="476,560.8359,486,564.8359,476,568.8359" style="stroke:#181818;stroke-width:1.0;"/><line style="stroke:#181818;stroke-width:1.0;" x1="154" x2="482" y1="564.8359" y2="564.8359"/><text fill="#000000" font-family="sans-serif" font-size="13" lengthAdjust="spacing" textLength="16" x="161" y="556.77">EK</text><text fill="#000000" font-family="sans-serif" font-size="10" lengthAdjust="spacing" textLength="11" x="177" y="560.4775">ID</text><text fill="#000000" font-family="sans-serif" font-size="13" lengthAdjust="spacing" textLength="28" x="188" y="556.77">, AIK</text><text fill="#000000" font-family="sans-serif" font-size="10" lengthAdjust="spacing" textLength="11" x="216" y="560.4775">ID</text><text fill="#000000" font-family="sans-serif" font-size="13" lengthAdjust="spacing" textLength="48" x="227" y="556.77">, secret</text><line style="stroke:#181818;stroke-width:1.0;" x1="498" x2="540" y1="593.9688" y2="593.9688"/><line style="stroke:#181818;stroke-width:1.0;" x1="540" x2="540" y1="593.9688" y2="606.9688"/><line style="stroke:#181818;stroke-width:1.0;" x1="499" x2="540" y1="606.9688" y2="606.9688"/><polygon fill="#181818" points="509,602.9688,499,606.9688,509,610.9688" style="stroke:#181818;stroke-width:1.0;"/><text fill="#000000" font-family="sans-serif" font-size="13" lengthAdjust="spacing" textLength="124" x="505" y="588.9028">Mark AIK as trusted</text><polygon fill="#181818" points="165,635.1016,155,639.1016,165,643.1016" style="stroke:#181818;stroke-width:1.0;"/><line style="stroke:#181818;stroke-width:1.0;stroke-dasharray:2.0,2.0;" x1="159" x2="487" y1="639.1016" y2="639.1016"/><text fill="#000000" font-family="sans-serif" font-size="13" lengthAdjust="spacing" textLength="17" x="171" y="631.0356">PC</text><text fill="#000000" font-family="sans-serif" font-size="10" lengthAdjust="spacing" textLength="11" x="188" y="634.7432">ID</text><line style="stroke:#181818;stroke-width:1.0;" x1="112" x2="154" y1="671.2344" y2="671.2344"/><line style="stroke:#181818;stroke-width:1.0;" x1="112" x2="112" y1="671.2344" y2="684.2344"/><line style="stroke:#181818;stroke-width:1.0;" x1="112" x2="153" y1="684.2344" y2="684.2344"/><polygon fill="#181818" points="145,680.2344,155,684.2344,145,688.2344" style="stroke:#181818;stroke-width:1.0;"/><text fill="#000000" font-family="sans-serif" font-size="13" lengthAdjust="spacing" textLength="55" x="73" y="663.1685">Obtain A</text><text fill="#000000" font-family="sans-serif" font-size="10" lengthAdjust="spacing" textLength="26" x="128" y="666.876">meta</text><polygon fill="#181818" points="285,712.3672,295,716.3672,285,720.3672" style="stroke:#181818;stroke-width:1.0;"/><line style="stroke:#181818;stroke-width:1.0;" x1="154" x2="291" y1="716.3672" y2="716.3672"/><text fill="#000000" font-family="sans-serif" font-size="13" lengthAdjust="spacing" textLength="20" x="161" y="708.3013">AIK</text><text fill="#000000" font-family="sans-serif" font-size="10" lengthAdjust="spacing" textLength="18" x="181" y="712.0088">priv</text><text fill="#000000" font-family="sans-serif" font-size="13" lengthAdjust="spacing" textLength="14" x="199" y="708.3013">(A</text><text fill="#000000" font-family="sans-serif" font-size="10" lengthAdjust="spacing" textLength="26" x="213" y="712.0088">meta</text><text fill="#000000" font-family="sans-serif" font-size="13" lengthAdjust="spacing" textLength="30" x="239" y="708.3013">), PC</text><text fill="#000000" font-family="sans-serif" font-size="10" lengthAdjust="spacing" textLength="11" x="269" y="712.0088">ID</text><line style="stroke:#181818;stroke-width:1.0;" x1="498" x2="540" y1="748.5" y2="748.5"/><line style="stroke:#181818;stroke-width:1.0;" x1="540" x2="540" y1="748.5" y2="761.5"/><line style="stroke:#181818;stroke-width:1.0;" x1="499" x2="540" y1="761.5" y2="761.5"/><polygon fill="#181818" points="509,757.5,499,761.5,509,765.5" style="stroke:#181818;stroke-width:1.0;"/><text fill="#000000" font-family="sans-serif" font-size="13" lengthAdjust="spacing" textLength="49" x="505" y="740.4341">Verify A</text><text fill="#000000" font-family="sans-serif" font-size="10" lengthAdjust="spacing" textLength="26" x="554" y="744.1416">meta</text><polygon fill="#181818" points="165,786.6328,155,790.6328,165,794.6328" style="stroke:#181818;stroke-width:1.0;"/><line style="stroke:#181818;stroke-width:1.0;stroke-dasharray:2.0,2.0;" x1="159" x2="487" y1="790.6328" y2="790.6328"/><text fill="#000000" font-family="sans-serif" font-size="13" lengthAdjust="spacing" textLength="42" x="171" y="785.5669">Status</text><line style="stroke:#181818;stroke-width:1.0;" x1="112" x2="154" y1="819.7656" y2="819.7656"/><line style="stroke:#181818;stroke-width:1.0;" x1="112" x2="112" y1="819.7656" y2="832.7656"/><line style="stroke:#181818;stroke-width:1.0;" x1="112" x2="153" y1="832.7656" y2="832.7656"/><polygon fill="#181818" points="145,828.7656,155,832.7656,145,836.7656" style="stroke:#181818;stroke-width:1.0;"/><text fill="#000000" font-family="sans-serif" font-size="13" lengthAdjust="spacing" textLength="68" x="86" y="814.6997">Obtain RIM</text><polygon fill="#181818" points="476,860.8984,486,864.8984,476,868.8984" style="stroke:#181818;stroke-width:1.0;"/><line style="stroke:#181818;stroke-width:1.0;" x1="154" x2="482" y1="864.8984" y2="864.8984"/><text fill="#000000" font-family="sans-serif" font-size="13" lengthAdjust="spacing" textLength="20" x="161" y="856.8325">AIK</text><text fill="#000000" font-family="sans-serif" font-size="10" lengthAdjust="spacing" textLength="18" x="181" y="860.54">priv</text><text fill="#000000" font-family="sans-serif" font-size="13" lengthAdjust="spacing" textLength="57" x="199" y="856.8325">(RIM), PC</text><text fill="#000000" font-family="sans-serif" font-size="10" lengthAdjust="spacing" textLength="11" x="256" y="860.54">ID</text><line style="stroke:#181818;stroke-width:1.0;" x1="498" x2="540" y1="894.0313" y2="894.0313"/><line style="stroke:#181818;stroke-width:1.0;" x1="540" x2="540" y1="894.0313" y2="907.0313"/><line style="stroke:#181818;stroke-width:1.0;" x1="499" x2="540" y1="907.0313" y2="907.0313"/><polygon fill="#181818" points="509,903.0313,499,907.0313,509,911.0313" style="stroke:#181818;stroke-width:1.0;"/><text fill="#000000" font-family="sans-serif" font-size="13" lengthAdjust="spacing" textLength="62" x="505" y="888.9653">Verify RIM</text><polygon fill="#181818" points="165,932.1641,155,936.1641,165,940.1641" style="stroke:#181818;stroke-width:1.0;"/><line style="stroke:#181818;stroke-width:1.0;stroke-dasharray:2.0,2.0;" x1="159" x2="487" y1="936.1641" y2="936.1641"/><text fill="#000000" font-family="sans-serif" font-size="13" lengthAdjust="spacing" textLength="42" x="171" y="931.0981">Status</text><polygon fill="#181818" points="476,961.2969,486,965.2969,476,969.2969" style="stroke:#181818;stroke-width:1.0;"/><line style="stroke:#181818;stroke-width:1.0;" x1="149" x2="482" y1="965.2969" y2="965.2969"/><text fill="#000000" font-family="sans-serif" font-size="13" lengthAdjust="spacing" textLength="116" x="156" y="960.231">Finish provisioning</text><polygon fill="#181818" points="313,993.4297,303,997.4297,313,1001.4297" style="stroke:#181818;stroke-width:1.0;"/><line style="stroke:#181818;stroke-width:1.0;" x1="307" x2="487" y1="997.4297" y2="997.4297"/><text fill="#000000" font-family="sans-serif" font-size="13" lengthAdjust="spacing" textLength="18" x="319" y="989.3638">PO</text><text fill="#000000" font-family="sans-serif" font-size="10" lengthAdjust="spacing" textLength="25" x="337" y="993.0713">chain</text><line style="stroke:#181818;stroke-width:1.0;" x1="302" x2="344" y1="1029.5625" y2="1029.5625"/><line style="stroke:#181818;stroke-width:1.0;" x1="344" x2="344" y1="1029.5625" y2="1042.5625"/><line style="stroke:#181818;stroke-width:1.0;" x1="303" x2="344" y1="1042.5625" y2="1042.5625"/><polygon fill="#181818" points="313,1038.5625,303,1042.5625,313,1046.5625" style="stroke:#181818;stroke-width:1.0;"/><text fill="#000000" font-family="sans-serif" font-size="13" lengthAdjust="spacing" textLength="58" x="309" y="1021.4966">Verify PO</text><text fill="#000000" font-family="sans-serif" font-size="10" lengthAdjust="spacing" textLength="25" x="367" y="1025.2041">chain</text><polygon fill="#181818" points="476,1070.6953,486,1074.6953,476,1078.6953" style="stroke:#181818;stroke-width:1.0;"/><line style="stroke:#181818;stroke-width:1.0;stroke-dasharray:2.0,2.0;" x1="302" x2="482" y1="1074.6953" y2="1074.6953"/><text fill="#000000" font-family="sans-serif" font-size="13" lengthAdjust="spacing" textLength="17" x="309" y="1066.6294">PC</text><text fill="#000000" font-family="sans-serif" font-size="10" lengthAdjust="spacing" textLength="11" x="326" y="1070.3369">ID</text><polygon fill="#181818" points="313,1102.8281,303,1106.8281,313,1110.8281" style="stroke:#181818;stroke-width:1.0;"/><line style="stroke:#181818;stroke-width:1.0;" x1="307" x2="487" y1="1106.8281" y2="1106.8281"/><text fill="#000000" font-family="sans-serif" font-size="13" lengthAdjust="spacing" textLength="18" x="319" y="1098.7622">PO</text><text fill="#000000" font-family="sans-serif" font-size="10" lengthAdjust="spacing" textLength="18" x="337" y="1102.4697">priv</text><text fill="#000000" font-family="sans-serif" font-size="13" lengthAdjust="spacing" textLength="14" x="355" y="1098.7622">(A</text><text fill="#000000" font-family="sans-serif" font-size="10" lengthAdjust="spacing" textLength="26" x="369" y="1102.4697">meta</text><text fill="#000000" font-family="sans-serif" font-size="13" lengthAdjust="spacing" textLength="5" x="395" y="1098.7622">)</text><polygon fill="#181818" points="476,1131.9609,486,1135.9609,476,1139.9609" style="stroke:#181818;stroke-width:1.0;"/><line style="stroke:#181818;stroke-width:1.0;stroke-dasharray:2.0,2.0;" x1="302" x2="482" y1="1135.9609" y2="1135.9609"/><text fill="#000000" font-family="sans-serif" font-size="13" lengthAdjust="spacing" textLength="42" x="309" y="1130.895">Status</text><polygon fill="#181818" points="313,1164.0938,303,1168.0938,313,1172.0938" style="stroke:#181818;stroke-width:1.0;"/><line style="stroke:#181818;stroke-width:1.0;" x1="307" x2="487" y1="1168.0938" y2="1168.0938"/><text fill="#000000" font-family="sans-serif" font-size="13" lengthAdjust="spacing" textLength="18" x="319" y="1160.0278">PO</text><text fill="#000000" font-family="sans-serif" font-size="10" lengthAdjust="spacing" textLength="18" x="337" y="1163.7354">priv</text><text fill="#000000" font-family="sans-serif" font-size="13" lengthAdjust="spacing" textLength="32" x="355" y="1160.0278">(RIM)</text><polygon fill="#181818" points="476,1193.2266,486,1197.2266,476,1201.2266" style="stroke:#181818;stroke-width:1.0;"/><line style="stroke:#181818;stroke-width:1.0;stroke-dasharray:2.0,2.0;" x1="302" x2="482" y1="1197.2266" y2="1197.2266"/><text fill="#000000" font-family="sans-serif" font-size="13" lengthAdjust="spacing" textLength="42" x="309" y="1192.1606">Status</text><polygon fill="#181818" points="313,1225.3594,303,1229.3594,313,1233.3594" style="stroke:#181818;stroke-width:1.0;"/><line style="stroke:#181818;stroke-width:1.0;" x1="307" x2="487" y1="1229.3594" y2="1229.3594"/><text fill="#000000" font-family="sans-serif" font-size="13" lengthAdjust="spacing" textLength="18" x="319" y="1221.2935">PO</text><text fill="#000000" font-family="sans-serif" font-size="10" lengthAdjust="spacing" textLength="18" x="337" y="1225.001">priv</text><text fill="#000000" font-family="sans-serif" font-size="13" lengthAdjust="spacing" textLength="46" x="355" y="1221.2935">(Policy)</text><polygon fill="#181818" points="313,1254.4922,303,1258.4922,313,1262.4922" style="stroke:#181818;stroke-width:1.0;"/><line style="stroke:#181818;stroke-width:1.0;" x1="307" x2="487" y1="1258.4922" y2="1258.4922"/><text fill="#000000" font-family="sans-serif" font-size="13" lengthAdjust="spacing" textLength="116" x="319" y="1253.4263">Finish provisioning</text><line style="stroke:#181818;stroke-width:1.0;" x1="302" x2="344" y1="1302.7578" y2="1302.7578"/><line style="stroke:#181818;stroke-width:1.0;" x1="344" x2="344" y1="1302.7578" y2="1315.7578"/><line style="stroke:#181818;stroke-width:1.0;" x1="303" x2="344" y1="1315.7578" y2="1315.7578"/><polygon fill="#181818" points="313,1311.7578,303,1315.7578,313,1319.7578" style="stroke:#181818;stroke-width:1.0;"/><text fill="#000000" font-family="sans-serif" font-size="13" lengthAdjust="spacing" textLength="148" x="309" y="1282.5591">Verify all data attached</text><text fill="#000000" font-family="sans-serif" font-size="13" lengthAdjust="spacing" textLength="172" x="309" y="1297.6919">to the Provisioning Context</text><line style="stroke:#181818;stroke-width:1.0;" x1="302" x2="344" y1="1344.8906" y2="1344.8906"/><line style="stroke:#181818;stroke-width:1.0;" x1="344" x2="344" y1="1344.8906" y2="1357.8906"/><line style="stroke:#181818;stroke-width:1.0;" x1="303" x2="344" y1="1357.8906" y2="1357.8906"/><polygon fill="#181818" points="313,1353.8906,303,1357.8906,313,1361.8906" style="stroke:#181818;stroke-width:1.0;"/><text fill="#000000" font-family="sans-serif" font-size="13" lengthAdjust="spacing" textLength="119" x="309" y="1339.8247">Save data to Flash</text><polygon fill="#181818" points="476,1383.0234,486,1387.0234,476,1391.0234" style="stroke:#181818;stroke-width:1.0;"/><line style="stroke:#181818;stroke-width:1.0;stroke-dasharray:2.0,2.0;" x1="297" x2="482" y1="1387.0234" y2="1387.0234"/><text fill="#000000" font-family="sans-serif" font-size="13" lengthAdjust="spacing" textLength="42" x="304" y="1381.9575">Status</text><polygon fill="#181818" points="160,1412.1563,150,1416.1563,160,1420.1563" style="stroke:#181818;stroke-width:1.0;"/><line style="stroke:#181818;stroke-width:1.0;stroke-dasharray:2.0,2.0;" x1="154" x2="487" y1="1416.1563" y2="1416.1563"/><text fill="#000000" font-family="sans-serif" font-size="13" lengthAdjust="spacing" textLength="157" x="166" y="1411.0903">Send provisioning status</text><rect fill="#FFFFFF" height="144.0781" id="_legend" rx="7.5" ry="7.5" style="stroke:#FFFFFF;stroke-width:0.0;" width="431" x="8" y="13"/><text fill="#000000" font-family="sans-serif" font-size="14" lengthAdjust="spacing" textLength="9" x="14" y="31.9951">K</text><text fill="#000000" font-family="sans-serif" font-size="11" lengthAdjust="spacing" textLength="21" x="23" y="35.7026">priv</text><text fill="#000000" font-family="sans-serif" font-size="14" lengthAdjust="spacing" textLength="120" x="44" y="31.9951">(X) - Sign X with P</text><text fill="#000000" font-family="sans-serif" font-size="11" lengthAdjust="spacing" textLength="21" x="164" y="35.7026">priv</text><text fill="#000000" font-family="sans-serif" font-size="14" lengthAdjust="spacing" textLength="24" x="189" y="31.9951">key</text><text fill="#000000" font-family="sans-serif" font-size="14" lengthAdjust="spacing" textLength="18" x="14" y="51.292">EK</text><text fill="#000000" font-family="sans-serif" font-size="11" lengthAdjust="spacing" textLength="30" x="32" y="54.9995">chain</text><text fill="#000000" font-family="sans-serif" font-size="14" lengthAdjust="spacing" textLength="246" x="66" y="51.292">- Endorsement Key Certificate chain</text><text fill="#000000" font-family="sans-serif" font-size="14" lengthAdjust="spacing" textLength="21" x="14" y="70.5889">AIK</text><text fill="#000000" font-family="sans-serif" font-size="11" lengthAdjust="spacing" textLength="46" x="35" y="74.2964">priv,pub</text><text fill="#000000" font-family="sans-serif" font-size="14" lengthAdjust="spacing" textLength="166" x="85" y="70.5889">- Attestation Identity key</text><text fill="#000000" font-family="sans-serif" font-size="14" lengthAdjust="spacing" textLength="9" x="14" y="89.8857">A</text><text fill="#000000" font-family="sans-serif" font-size="11" lengthAdjust="spacing" textLength="29" x="23" y="93.5933">meta</text><text fill="#000000" font-family="sans-serif" font-size="14" lengthAdjust="spacing" textLength="377" x="56" y="89.8857">Platform metadata (product name, serial number, MAC)</text><text fill="#000000" font-family="sans-serif" font-size="14" lengthAdjust="spacing" textLength="21" x="14" y="109.1826">AIK</text><text fill="#000000" font-family="sans-serif" font-size="11" lengthAdjust="spacing" textLength="11" x="35" y="112.8901">ID</text><text fill="#000000" font-family="sans-serif" font-size="14" lengthAdjust="spacing" textLength="95" x="50" y="109.1826">- AIK object ID</text><text fill="#000000" font-family="sans-serif" font-size="14" lengthAdjust="spacing" textLength="19" x="14" y="128.4795">PC</text><text fill="#000000" font-family="sans-serif" font-size="11" lengthAdjust="spacing" textLength="11" x="33" y="132.187">ID</text><text fill="#000000" font-family="sans-serif" font-size="14" lengthAdjust="spacing" textLength="168" x="48" y="128.4795">- Provisioning Context ID</text><text fill="#000000" font-family="sans-serif" font-size="14" lengthAdjust="spacing" textLength="269" x="14" y="147.7764">RIM - Reference Integrity Measurement</text><!--MD5=[9ad1eb8a6f7e1d71078071c5f50a4242]
@startuml Fobnail Remote Platform Provisioning

skinparam LegendBorderThickness 0
skinparam LegendBackgroundColor #white
skinparam style strictuml
participant "Platform"
participant "Fobnail Token" as FT
participant "Platform Owner" as PO

legend top left
    K<sub>priv</sub>(X) - Sign X with P<sub>priv</sub> key
    EK<sub>chain</sub> - Endorsement Key Certificate chain
    AIK<sub>priv,pub</sub> - Attestation Identity key
    A<sub>meta</sub> Platform metadata (product name, serial number, MAC)
    AIK<sub>ID</sub> - AIK object ID
    PC<sub>ID</sub> - Provisioning Context ID
    RIM - Reference Integrity Measurement
endlegend

activate Platform
activate PO

Platform -> PO: Send EK certificate chain\nEK<sub>chain</sub>
PO -> PO: Verify EK<sub>chain</sub>
PO - -> Platform: EK<sub>ID</sub>
Platform <- Platform: Generate AIK<sub>Priv,Pub</sub>
Platform -> PO: EK<sub>ID</sub>, AIK<sub>Pub</sub>
PO -> PO: Make Credential
PO - -> Platform: AIK<sub>ID</sub>,\nChallenge (EK, AIK, secret)
Platform <- Platform: Activate Credential
Platform -> PO: EK<sub>ID</sub>, AIK<sub>ID</sub>, secret
PO -> PO: Mark AIK as trusted
PO - -> Platform: PC<sub>ID</sub>
Platform <- Platform: Obtain A<sub>meta</sub>
Platform -> FT: AIK<sub>priv</sub>(A<sub>meta</sub>), PC<sub>ID</sub>
PO -> PO: Verify A<sub>meta</sub>
PO - -> Platform: Status
Platform <- Platform: Obtain RIM
Platform -> PO: AIK<sub>priv</sub>(RIM), PC<sub>ID</sub>
PO -> PO: Verify RIM
PO - -> Platform: Status
Platform -> PO: Finish provisioning

deactivate Platform
activate FT

PO -> FT: PO<sub>chain</sub>
FT -> FT: Verify PO<sub>chain</sub>
FT - -> PO: PC<sub>ID</sub>
PO -> FT: PO<sub>priv</sub>(A<sub>meta</sub>)
FT - -> PO: Status
PO -> FT: PO<sub>priv</sub>(RIM)
FT - -> PO: Status
PO -> FT: PO<sub>priv</sub>(Policy)
PO -> FT: Finish provisioning
FT -> FT: Verify all data attached\nto the Provisioning Context
FT -> FT: Save data to Flash
FT - -> PO: Status

deactivate FT

PO - -> Platform: Send provisioning status

@enduml

PlantUML version 1.2022.7beta3(Unknown compile time)
(GPL source distribution)
Java Runtime: OpenJDK Runtime Environment
JVM: OpenJDK 64-Bit Server VM
Default Encoding: UTF-8
Language: en
Country: US
--></g></svg>
